PathFileType	4	(X/Y/Z)	C:\Users\86182\Documents\cortex\Trimmed_M1_H10.trc
DataRate	CameraRate	NumFrames	NumMarkers	Units	OrigDataRate	OrigDataStartFrame	OrigNumFrames
100.00	100.00	       98	2	mm	100.00	761	       951
Frame#	Time	gripper			box			
		X1	Y1	Z1	X2	Y2	Z2	

761	7.600	222.30937	204.54907	286.39801	228.98067	203.31773	139.87306	
762	7.610	222.31056	204.54745	286.40045	228.97742	203.31628	139.87366	
763	7.620	222.30911	204.54617	286.40353	228.97507	203.31525	139.87410	
764	7.630	222.30585	204.54550	286.40637	228.97470	203.31509	139.87418	
765	7.640	222.30208	204.54562	286.40811	228.97653	203.31590	139.87383	
766	7.650	222.29855	204.54657	286.40829	228.97980	203.31735	139.87323	
767	7.660	222.29507	204.54822	286.40729	228.98329	203.31889	139.87257	
768	7.670	222.29141	204.55017	286.40570	228.98593	203.32005	139.87209	
769	7.680	222.28819	204.55186	286.40411	228.98721	203.32062	139.87186	
770	7.690	222.28651	204.55293	286.40277	228.98723	203.32063	139.87186	
771	7.700	222.28683	204.55338	286.40195	228.98656	203.32033	139.87198	
772	7.710	222.28889	204.55331	286.40186	228.98601	203.32010	139.87207	
773	7.720	222.29233	204.55293	286.40253	228.98610	203.32013	139.87206	
774	7.730	222.29681	204.55237	286.40363	228.98672	203.32040	139.87193	
775	7.740	222.30170	204.55177	286.40472	228.98755	203.32077	139.87178	
776	7.750	222.30557	204.55135	286.40540	228.98831	203.32111	139.87164	
777	7.760	222.30685	204.55130	286.40561	228.98883	203.32133	139.87155	
778	7.770	222.30457	204.55177	286.40540	228.98891	203.32137	139.87152	
779	7.780	222.29881	204.55269	286.40503	228.98851	203.32120	139.87161	
780	7.790	222.29091	204.55377	286.40469	228.98792	203.32094	139.87172	
781	7.800	222.28275	204.55475	286.40442	228.98749	203.32074	139.87180	
782	7.810	222.27588	204.55534	286.40439	228.98741	203.32071	139.87181	
783	7.820	222.27124	204.55550	286.40475	228.98782	203.32089	139.87173	
784	7.830	222.26898	204.55521	286.40570	228.98880	203.32132	139.87155	
785	7.840	222.26851	204.55463	286.40735	228.99017	203.32193	139.87129	
786	7.850	222.26909	204.55392	286.40948	228.99155	203.32254	139.87103	
787	7.860	222.27045	204.55318	286.41162	228.99245	203.32294	139.87088	
788	7.870	222.27254	204.55241	286.41318	228.99260	203.32300	139.87085	
789	7.880	222.27501	204.55168	286.41385	228.99191	203.32271	139.87097	
790	7.890	222.27750	204.55122	286.41339	228.99037	203.32202	139.87126	
791	7.900	222.28000	204.55127	286.41165	228.98792	203.32094	139.87170	
792	7.910	222.28259	204.55183	286.40875	228.98470	203.31950	139.87231	
793	7.920	222.28514	204.55272	286.40530	228.98126	203.31799	139.87296	
794	7.930	222.28728	204.55351	286.40210	228.97855	203.31679	139.87344	
795	7.940	222.28857	204.55382	286.39990	228.97733	203.31625	139.87369	
796	7.950	222.28853	204.55356	286.39929	228.97769	203.31641	139.87361	
797	7.960	222.28702	204.55292	286.40039	228.97935	203.31715	139.87331	
798	7.970	222.28416	204.55220	286.40289	228.98160	203.31813	139.87289	
799	7.980	222.27957	204.55174	286.40588	228.98328	203.31888	139.87259	
800	7.990	222.27277	204.55179	286.40854	228.98328	203.31888	139.87259	
801	8.000	222.26442	204.55246	286.41022	228.98105	203.31790	139.87300	
802	8.010	222.25623	204.55354	286.41068	228.97678	203.31601	139.87378	
803	8.020	222.24992	204.55466	286.41031	228.97154	203.31369	139.87476	
804	8.030	222.24660	204.55550	286.40973	228.96724	203.31180	139.87555	
805	8.040	222.24677	204.55586	286.40942	228.96581	203.31116	139.87582	
806	8.050	222.25055	204.55563	286.40973	228.96785	203.31206	139.87544	
807	8.060	222.25798	204.55475	286.41040	228.97221	203.31400	139.87463	
808	8.070	222.26848	204.55334	286.41110	228.97705	203.31613	139.87373	
809	8.080	222.28061	204.55182	286.41132	228.98102	203.31787	139.87300	
810	8.090	222.29254	204.55061	286.41064	228.98361	203.31903	139.87253	
811	8.100	222.30281	204.54999	286.40900	228.98489	203.31960	139.87228	
812	8.110	222.31052	204.55000	286.40662	228.98518	203.31973	139.87222	
813	8.120	222.31523	204.55066	286.40390	228.98502	203.31966	139.87225	
814	8.130	222.31691	204.55183	286.40143	228.98497	203.31963	139.87227	
815	8.140	222.31554	204.55331	286.39957	228.98515	203.31972	139.87222	
816	8.150	222.31093	204.55484	286.39874	228.98492	203.31961	139.87227	
817	8.160	222.30339	204.55621	286.39899	228.98337	203.31892	139.87256	
818	8.170	222.29408	204.55736	286.40009	228.97998	203.31743	139.87320	
819	8.180	222.28430	204.55830	286.40155	228.97499	203.31523	139.87411	
820	8.190	222.27510	204.55907	286.40298	228.96936	203.31273	139.87517	
821	8.200	222.26709	204.55959	286.40421	228.96416	203.31044	139.87613	
822	8.210	222.26042	204.55988	286.40521	228.95993	203.30856	139.87692	
823	8.220	222.25511	204.56000	286.40601	228.95677	203.30717	139.87750	
824	8.230	222.25179	204.55992	286.40652	228.95505	203.30641	139.87781	
825	8.240	222.25133	204.55959	286.40656	228.95534	203.30655	139.87775	
826	8.250	222.25418	204.55896	286.40598	228.95799	203.30771	139.87726	
827	8.260	222.25986	204.55817	286.40485	228.96281	203.30984	139.87637	
828	8.270	222.26711	204.55736	286.40338	228.96913	203.31264	139.87518	
829	8.280	222.27426	204.55675	286.40204	228.97586	203.31560	139.87393	
830	8.290	222.27962	204.55646	286.40112	228.98190	203.31827	139.87282	
831	8.300	222.28207	204.55652	286.40088	228.98663	203.32036	139.87195	
832	8.310	222.28178	204.55682	286.40131	228.98982	203.32178	139.87135	
833	8.320	222.27989	204.55728	286.40228	228.99141	203.32248	139.87106	
834	8.330	222.27742	204.55789	286.40363	228.99142	203.32248	139.87106	
835	8.340	222.27473	204.55859	286.40503	228.98982	203.32178	139.87137	
836	8.350	222.27158	204.55917	286.40625	228.98654	203.32033	139.87198	
837	8.360	222.26768	204.55946	286.40726	228.98158	203.31813	139.87289	
838	8.370	222.26350	204.55952	286.40805	228.97551	203.31544	139.87402	
839	8.380	222.26003	204.55956	286.40857	228.96948	203.31279	139.87515	
840	8.390	222.25789	204.55975	286.40875	228.96498	203.31079	139.87598	
841	8.400	222.25703	204.56024	286.40869	228.96283	203.30984	139.87637	
842	8.410	222.25703	204.56102	286.40857	228.96277	203.30981	139.87639	
843	8.420	222.25778	204.56195	286.40833	228.96376	203.31026	139.87621	
844	8.430	222.25951	204.56274	286.40802	228.96509	203.31084	139.87596	
845	8.440	222.26201	204.56303	286.40762	228.96689	203.31165	139.87563	
846	8.450	222.26450	204.56250	286.40726	228.96976	203.31290	139.87509	
847	8.460	222.26599	204.56107	286.40704	228.97380	203.31470	139.87434	
848	8.470	222.26611	204.55905	286.40701	228.97852	203.31677	139.87347	
849	8.480	222.26530	204.55690	286.40720	228.98294	203.31873	139.87265	
850	8.490	222.26466	204.55492	286.40750	228.98621	203.32018	139.87204	
851	8.500	222.26540	204.55319	286.40784	228.98795	203.32094	139.87172	
852	8.510	222.26796	204.55180	286.40814	228.98837	203.32114	139.87164	
853	8.520	222.27177	204.55078	286.40848	228.98805	203.32098	139.87170	
854	8.530	222.27573	204.55013	286.40894	228.98746	203.32072	139.87181	
855	8.540	222.27847	204.54988	286.40961	228.98676	203.32042	139.87195	
856	8.550	222.27864	204.55008	286.41046	228.98596	203.32007	139.87210	
857	8.560	222.27545	204.55075	286.41147	228.98521	203.31973	139.87224	
858	8.570	222.26944	204.55180	286.41241	228.98474	203.31953	139.87231	
